HIERARCHY
ROOT root
{
	OFFSET 0.000000 0.000000 0.000000
	CHANNELS 6 Xposition Yposition Zposition Zrotation Yrotation Xrotation
	JOINT lhip
	{
		OFFSET 0.058581 -0.082280 -0.017664
		CHANNELS 3 Zrotation Yrotation Xrotation
		JOINT lknee
		{
			OFFSET 0.043451 -0.386469 0.008037
			CHANNELS 3 Zrotation Yrotation Xrotation
			JOINT lankle
			{
				OFFSET -0.014790 -0.426874 -0.037428
				CHANNELS 3 Zrotation Yrotation Xrotation
				JOINT ltoe
				{
					OFFSET 0.041054 -0.060286 0.122042
					CHANNELS 3 Zrotation Yrotation Xrotation
					End Site
					{
						OFFSET 0.000000 0.000000 0.000000
					}
				}
			}
		}
	}
	JOINT rhip
	{
		OFFSET -0.060310 -0.090513 -0.013543
		CHANNELS 3 Zrotation Yrotation Xrotation
		JOINT rknee
		{
			OFFSET -0.043257 -0.383688 -0.004843
			CHANNELS 3 Zrotation Yrotation Xrotation
			JOINT rankle
			{
				OFFSET 0.019056 -0.420046 -0.034562
				CHANNELS 3 Zrotation Yrotation Xrotation
				JOINT rtoe
				{
					OFFSET -0.034840 -0.062106 0.130323
					CHANNELS 3 Zrotation Yrotation Xrotation
					End Site
					{
						OFFSET 0.000000 0.000000 0.000000
					}
				}
			}
		}
	}
	JOINT lowerback
	{
		OFFSET 0.004439 0.124404 -0.038385
		CHANNELS 3 Zrotation Yrotation Xrotation
		JOINT upperback
		{
			OFFSET 0.004488 0.137956 0.026820
			CHANNELS 3 Zrotation Yrotation Xrotation
			JOINT chest
			{
				OFFSET -0.002265 0.056032 0.002855
				CHANNELS 3 Zrotation Yrotation Xrotation
				JOINT lowerneck
				{
					OFFSET -0.013390 0.211636 -0.033468
					CHANNELS 3 Zrotation Yrotation Xrotation
					JOINT upperneck
					{
						OFFSET 0.010113 0.088937 0.050410
						CHANNELS 3 Zrotation Yrotation Xrotation
						End Site
						{
							OFFSET 0.000000 0.000000 0.000000
						}
					}
				}
				JOINT lclavicle
				{
					OFFSET 0.071702 0.114000 -0.018898
					CHANNELS 3 Zrotation Yrotation Xrotation
					JOINT lshoulder
					{
						OFFSET 0.122921 0.045205 -0.019046
						CHANNELS 3 Zrotation Yrotation Xrotation
						JOINT lelbow
						{
							OFFSET 0.255332 -0.015649 -0.022946
							CHANNELS 3 Zrotation Yrotation Xrotation
							JOINT lwrist
							{
								OFFSET 0.265709 0.012698 -0.007375
								CHANNELS 3 Zrotation Yrotation Xrotation
								End Site
								{
									OFFSET 0.000000 0.000000 0.000000
								}
							}
						}
					}
				}
				JOINT rclavicle
				{
					OFFSET -0.082954 0.112472 -0.023707
					CHANNELS 3 Zrotation Yrotation Xrotation
					JOINT rshoulder
					{
						OFFSET -0.113228 0.046853 -0.008472
						CHANNELS 3 Zrotation Yrotation Xrotation
						JOINT relbow
						{
							OFFSET -0.260127 -0.014369 -0.031269
							CHANNELS 3 Zrotation Yrotation Xrotation
							JOINT rwrist
							{
								OFFSET -0.269108 0.006794 -0.006027
								CHANNELS 3 Zrotation Yrotation Xrotation
								End Site
								{
									OFFSET 0.000000 0.000000 0.000000
								}
							}
						}
					}
				}
			}
		}
	}
}
MOTION
Frames: 8
Frame Time: 0.033333
0.157845 0.554289 0.999605 -5.754106 35.335203 72.817005 37.079693 7.686472 -0.173274 -13.504415 -23.460962 33.225829 1.297711 7.683565 -32.998729 0.000000 -0.000000 0.000000 -21.389108 -16.702745 -55.445527 -1.270662 -26.350819 84.631352 14.219478 -6.357293 -2.050587 0.000000 -0.000000 0.000000 -4.185538 -2.668746 35.953148 8.586709 3.726018 -12.984066 7.275268 -3.424825 9.458397 12.052273 -6.190735 13.137048 15.022410 -17.685860 1.055821 -10.188591 -7.206016 -5.069652 -1.540884 -19.912290 -4.595544 117.687985 -87.358355 -104.443855 15.790620 -14.090467 -4.511427 22.591569 3.770558 -5.913309 26.776577 -8.536716 6.159680 5.088034 34.680739 3.124065 -12.319731 10.701580 8.084510 
0.160771 0.556134 0.993729 -7.502478 34.486184 71.552327 36.840025 9.296410 0.742270 -12.956186 -22.044634 33.359496 1.509785 5.633544 -33.730632 0.000000 -0.000000 0.000000 -20.122090 -16.573536 -53.060135 0.679612 -25.752411 59.084676 15.582494 -11.253763 10.628043 0.000000 -0.000000 0.000000 -4.475129 -2.181906 36.225531 8.509338 2.909286 -12.266156 8.131494 -3.905045 9.811061 10.196736 -7.488234 15.666857 17.086527 -14.875697 1.499014 -9.712282 -8.518504 -4.162682 -0.406968 -22.653220 -6.938384 60.960804 -87.246303 -49.264810 16.578291 -15.370603 -3.413333 22.049152 3.408127 -5.463489 28.490738 -8.774037 7.438316 2.969914 34.064427 -0.077656 -12.020930 10.429172 7.218434 
0.163210 0.559070 0.989581 -8.844102 33.022237 71.760825 35.663108 11.937895 0.200865 -11.958170 -20.890648 33.850873 0.113810 2.858783 -34.848510 0.000000 -0.000000 0.000000 -17.976453 -15.459553 -47.429764 4.220691 -21.268329 24.610436 17.760405 -10.481241 1.138224 0.000000 -0.000000 0.000000 -4.742650 -0.920777 35.601428 8.025771 1.527329 -12.198589 8.762637 -4.998656 9.748442 10.064339 -6.186313 17.071087 17.812879 -14.812169 2.310604 -8.926103 -9.605935 -3.650712 -0.393940 -25.667515 -8.171220 17.931006 -83.964565 -6.193021 17.270184 -16.438652 -2.938357 21.895836 2.747960 -4.944562 30.173582 -9.048787 7.133970 1.959565 32.585778 -0.547670 -12.454750 10.131916 6.679601 
0.164258 0.561945 0.986600 -9.012417 31.342362 74.073400 33.169550 12.228965 -2.371631 -11.306846 -18.873645 34.135265 -0.452659 2.234691 -34.766388 0.000000 -0.000000 0.000000 -17.527712 -15.513110 -45.474822 5.376844 -21.119077 -1.854520 15.758457 -15.902998 -8.423920 0.000000 -0.000000 0.000000 -5.050378 0.042487 33.104132 7.575445 0.221862 -12.439114 8.680972 -6.170428 9.381264 9.086573 -5.472328 18.579309 17.907224 -13.992229 1.943373 -8.171336 -10.688612 -0.908343 -0.529531 -28.987015 -9.636828 9.541688 -79.364468 3.690511 17.282391 -17.029743 -1.915757 21.410409 1.196128 -3.531262 32.753452 -9.522682 6.532883 1.000559 31.145864 -0.141003 -11.073853 9.463386 4.659515 
0.162720 0.560871 0.984303 -8.355836 30.110867 75.851462 31.278631 12.032178 -4.090836 -11.815731 -19.194350 34.639399 -0.201329 3.587807 -34.277496 0.000000 -0.000000 0.000000 -18.268778 -17.593529 -48.481696 7.589102 -15.479304 -0.166860 12.114733 -6.408933 -17.173379 0.000000 -0.000000 0.000000 -4.525444 0.048790 31.932646 6.811627 -0.771254 -14.873623 7.646406 -7.192071 10.636047 8.258560 -4.023577 17.893321 17.927237 -15.179093 1.245119 -6.920567 -12.373765 -0.982286 -3.350451 -31.163145 -8.502739 1.890212 -76.446268 11.385149 17.770805 -17.634450 -1.862310 19.581953 -0.376090 -3.247164 36.372961 -11.064942 4.054298 2.146038 29.396418 3.515334 -10.022720 9.244708 3.369215 
0.160245 0.555630 0.987423 -7.792345 29.961733 74.885064 31.299861 9.732747 -1.593543 -11.880486 -19.419312 32.444746 0.311701 5.339077 -33.413186 0.000000 -0.000000 0.000000 -20.563986 -17.146270 -48.597116 5.774701 -20.386340 12.161848 14.686607 -9.697340 -5.063089 0.000000 -0.000000 0.000000 -3.606841 -1.281863 33.474788 5.919188 -0.528911 -16.792700 6.735058 -7.757671 11.817708 6.635077 -5.261144 15.940212 17.779346 -14.289668 0.529067 -7.772106 -13.637721 -0.676955 -4.508299 -32.530002 -7.452925 -1.072092 -75.383939 13.265190 16.277028 -18.212078 -1.515958 18.230193 -1.388174 -5.195255 38.271169 -13.468112 4.984829 2.139142 28.060780 2.675574 -8.352202 8.692749 4.985280 
0.158078 0.553145 0.992830 -8.720566 30.228116 73.652918 32.433482 10.182528 1.534012 -11.339796 -20.317848 29.040817 0.288019 5.595051 -32.324465 0.000000 -0.000000 0.000000 -20.886110 -14.234265 -47.811249 4.565348 -23.152655 24.245294 13.061724 -12.448018 -7.508254 0.000000 -0.000000 0.000000 -3.281716 -2.827184 34.222295 5.716465 0.187941 -15.632929 6.416509 -7.498497 11.136292 6.462599 -5.304497 13.683175 17.559376 -12.875029 -0.804112 -9.413776 -14.226940 -1.522157 -5.608043 -32.825374 -5.935815 -3.974874 -75.344015 16.787408 15.995709 -17.905397 -1.943555 18.549031 -0.721365 -5.795117 37.784915 -14.715281 5.712216 1.268796 26.929664 1.333662 -9.743733 8.880940 5.049671 
0.155331 0.554913 0.996574 -9.463346 30.273193 74.184336 32.877070 11.410892 2.122573 -10.411059 -20.231195 26.283750 0.378668 5.177665 -31.559825 0.000000 -0.000000 0.000000 -19.645416 -12.289102 -48.635191 3.219102 -24.752968 36.384469 12.550960 -13.257652 -8.518624 0.000000 -0.000000 0.000000 -3.404840 -3.923936 33.657246 6.008574 0.326124 -14.001031 5.990894 -6.930900 9.361050 7.799737 -4.993326 12.403633 17.650634 -12.637422 -0.721944 -9.989846 -14.599219 -1.564461 -7.388968 -32.452443 -4.207435 -2.867817 -75.807946 16.723410 15.918874 -17.710430 -2.345929 18.825155 0.142781 -5.093470 37.967396 -14.759609 5.500294 -0.237396 25.710136 -1.175162 -10.941508 9.162009 3.873135 
